<svg xmlns="http://www.w3.org/2000/svg" fill="none" viewBox="0 0 24 24" id="User-Circle--Streamline-Solar" height="24" width="24">
  <desc>
    User Circle Streamline Icon: https://streamlinehq.com
  </desc>
  <g id="Bold Duotone/Users/User Circle">
    <path id="Vector" fill="#737374" d="M22 12c0 5.5228 -4.4772 10 -10 10 -5.52285 0 -10 -4.4772 -10 -10C2 6.47715 6.47715 2 12 2c5.5228 0 10 4.47715 10 10Z" stroke-width="1"></path>
    <path id="Vector_2" fill="#000000" d="M16.807 19.0112C15.4398 19.9504 13.7841 20.5 12 20.5c-1.7841 0 -3.43977 -0.5497 -4.807 -1.4889 -0.60385 -0.4148 -0.86191 -1.2049 -0.51081 -1.8479C7.41001 15.8302 8.90973 15 12 15c3.0903 0 4.59 0.8303 5.3178 2.1632 0.3511 0.643 0.093 1.4332 -0.5108 1.848Z" stroke-width="1"></path>
    <path id="Vector_3" fill="#000000" d="M12 12c1.6569 0 3 -1.3431 3 -3 0 -1.65685 -1.3431 -3 -3 -3 -1.6568 0 -2.99994 1.34315 -2.99994 3 0 1.6569 1.34314 3 2.99994 3Z" stroke-width="1"></path>
  </g>
</svg>